<svg width="68" height="66" viewBox="0 0 68 66" fill="none" xmlns="http://www.w3.org/2000/svg">
<path d="M62.6707 33.8741L44.9015 39.6182L55.8325 54.7526C58.0786 57.8495 57.3798 62.145 54.2852 64.3927C53.0873 65.2918 51.6398 65.6914 50.2422 65.6914C48.1459 65.6914 45.9996 64.6924 44.6519 62.8443L33.8208 47.8597L23.0395 62.9442C21.6918 64.7923 19.5456 65.8413 17.4492 65.8413C16.0516 65.8413 14.6541 65.4417 13.4062 64.5426C10.3116 62.2949 9.5629 57.9993 11.809 54.9025L22.6901 39.6681L4.77122 33.8741C1.12755 32.6753 -0.81907 28.8293 0.328936 25.183C1.52685 21.5368 5.37018 19.5888 9.01385 20.7376L26.783 26.4817V7.80087C26.783 3.95482 29.8776 0.907959 33.671 0.907959C37.4644 0.907959 40.5591 4.00477 40.5591 7.80087V26.5316L58.3282 20.7376C61.922 19.5388 65.8651 21.5368 67.0131 25.183C68.3109 28.7793 66.3143 32.6753 62.6707 33.8741Z" fill="white"/>
</svg>
