<svg width="71" height="24" viewBox="0 0 71 24" fill="none" xmlns="http://www.w3.org/2000/svg">
<path d="M30.3549 7.32397C27.7457 7.32397 25.6288 9.44235 25.6288 12.0534C25.6288 14.6644 27.7457 16.7828 30.3549 16.7828C32.3077 16.7828 33.9897 15.5922 34.7117 13.8926H32.2174C31.7415 14.377 31.0851 14.6726 30.3549 14.6726C28.7139 14.6726 28.0821 13.3999 27.959 13.1043H34.9661C35.7701 9.44235 32.603 7.32397 30.3549 7.32397ZM27.959 11.0024C28.3611 10.0828 29.28 9.43414 30.3549 9.43414C31.4215 9.43414 32.3405 10.0746 32.7507 11.0024H27.959Z" fill="white"/>
<path d="M41.0131 7.32397C38.4039 7.32397 36.287 9.44235 36.287 12.0534C36.287 14.6644 38.4039 16.7828 41.0131 16.7828C43.6222 16.7828 45.7391 14.6644 45.7391 12.0534C45.7391 9.44235 43.6222 7.32397 41.0131 7.32397ZM41.0131 14.6808C39.5608 14.6808 38.3957 13.5067 38.3957 12.0616C38.3957 10.6165 39.569 9.44235 41.0131 9.44235C42.4571 9.44235 43.6305 10.6165 43.6305 12.0616C43.6305 13.5067 42.4571 14.6808 41.0131 14.6808Z" fill="white"/>
<path d="M65.6196 7.32397C63.0105 7.32397 60.8936 9.44235 60.8936 12.0534C60.8936 14.6644 63.0105 16.7828 65.6196 16.7828C67.5724 16.7828 69.2544 15.5922 69.9764 13.8926H67.4822C67.0063 14.377 66.3499 14.6726 65.6196 14.6726C63.9787 14.6726 63.3469 13.3999 63.2238 13.1043H70.2308C71.0267 9.44235 67.8596 7.32397 65.6196 7.32397ZM63.2156 11.0024C63.6176 10.0828 64.5366 9.43414 65.6114 9.43414C66.6781 9.43414 67.597 10.0746 68.0073 11.0024H63.2156Z" fill="white"/>
<path d="M19.7705 7.32397C18.8024 7.32397 17.8998 7.61135 17.1532 8.11221V7.32397H15.0445V24H17.1532V15.9945C17.8998 16.4954 18.8024 16.7828 19.7705 16.7828C22.3797 16.7828 24.4966 14.6644 24.4966 12.0534C24.4966 9.44235 22.3797 7.32397 19.7705 7.32397ZM19.7705 14.6808C18.3183 14.6808 17.1532 13.5067 17.1532 12.0616C17.1532 10.6165 18.3265 9.44235 19.7705 9.44235C21.2146 9.44235 22.3879 10.6165 22.3879 12.0616C22.3879 13.5067 21.2146 14.6808 19.7705 14.6808Z" fill="white"/>
<path d="M51.6713 7.32397C50.7031 7.32397 49.8006 7.61135 49.0539 8.11221V7.32397H46.9453V24H49.0457V15.9945C49.7924 16.4954 50.6949 16.7828 51.6631 16.7828C54.2722 16.7828 56.3891 14.6644 56.3891 12.0534C56.3973 9.44235 54.2805 7.32397 51.6713 7.32397ZM51.6713 14.6808C50.219 14.6808 49.0539 13.5067 49.0539 12.0616C49.0539 10.6165 50.2272 9.44235 51.6713 9.44235C53.1154 9.44235 54.2887 10.6165 54.2887 12.0616C54.2805 13.5067 53.1154 14.6808 51.6713 14.6808Z" fill="white"/>
<path d="M59.6957 0H57.587V16.7828H59.6957V0Z" fill="white"/>
<path d="M10.302 12.1437L7.38107 13.0879L9.17795 15.5758C9.54717 16.0849 9.4323 16.791 8.9236 17.1605C8.72668 17.3083 8.48874 17.3739 8.259 17.3739C7.91439 17.3739 7.56158 17.2097 7.34005 16.9059L5.55958 14.4427L3.78731 16.9224C3.56578 17.2262 3.21297 17.3986 2.86836 17.3986C2.63862 17.3986 2.40889 17.3329 2.20376 17.1851C1.69506 16.8156 1.57198 16.1095 1.9412 15.6004L3.72988 13.0961L0.78431 12.1437C0.185351 11.9466 -0.134642 11.3144 0.0540716 10.715C0.25099 10.1156 0.882769 9.79543 1.48173 9.98427L4.40268 10.9285V7.85769C4.40268 7.22546 4.91139 6.72461 5.53496 6.72461C6.15854 6.72461 6.66724 7.23367 6.66724 7.85769V10.9367L9.5882 9.98427C10.179 9.78722 10.8271 10.1156 11.0159 10.715C11.2292 11.3062 10.901 11.9466 10.302 12.1437Z" fill="white"/>
</svg>
