<svg width="16" height="16" viewBox="0 0 16 16" fill="none" xmlns="http://www.w3.org/2000/svg">
<path d="M11.4307 11.067L10.9152 11.8402C10.8123 11.9945 10.6762 12.1262 10.4969 12.1736C9.90944 12.3289 8.34988 12.399 5.97548 10.0246C3.60109 7.65017 3.67117 6.09058 3.82639 5.50314C3.87377 5.3238 4.00547 5.18772 4.15981 5.08483L4.93306 4.56933C5.50876 4.18553 5.66433 3.4077 5.28053 2.83199L3.82012 0.641382C3.48512 0.138885 2.83931 -0.0530966 2.28421 0.184802L1.62542 0.467143C1.12496 0.681625 0.716721 1.06655 0.47322 1.55356C0.269783 1.96043 0.112105 2.38889 0.0907411 2.84329C0.0234153 4.27527 0.337412 7.80324 4.26711 11.7329C8.1968 15.6626 11.7247 15.9766 13.1567 15.9093C13.6111 15.8879 14.0396 15.7302 14.4465 15.5268C14.9335 15.2833 15.3184 14.8751 15.5329 14.3746L15.8152 13.7158C16.0531 13.1607 15.8611 12.5149 15.3586 12.1799L13.168 10.7195C12.5923 10.3357 11.8145 10.4913 11.4307 11.067Z" fill="white"/>
</svg>
